PathFileType	4	(X/Y/Z)	22_2_70_p1_0-208_filt_butterworth.trc
DataRate	CameraRate	NumFrames	NumMarkers	Units	OrigDataRate	OrigDataStartFrame	OrigNumFrames
59.0	59.0	4	27	m	59.0	0	208
Frame#	Time	RHip			RKnee			RAnkle			RBigToe			RSmallToe			RHeel			LHip			LKnee			LAnkle			LBigToe			LSmallToe			LHeel			Neck			Head			Nose			RShoulder			RElbow			RWrist			RThumb			RIndex			RPinky			LShoulder			LElbow			LWrist			LThumb			LIndex			LPinky			
		X1	Y1	Z1	X2	Y2	Z2	X3	Y3	Z3	X4	Y4	Z4	X5	Y5	Z5	X6	Y6	Z6	X7	Y7	Z7	X8	Y8	Z8	X9	Y9	Z9	X10	Y10	Z10	X11	Y11	Z11	X12	Y12	Z12	X13	Y13	Z13	X14	Y14	Z14	X15	Y15	Z15	X16	Y16	Z16	X17	Y17	Z17	X18	Y18	Z18	X19	Y19	Z19	X20	Y20	Z20	X21	Y21	Z21	X22	Y22	Z22	X23	Y23	Z23	X24	Y24	Z24	X25	Y25	Z25	X26	Y26	Z26	X27	Y27	Z27	
0	0.0	0.2686058394640774	0.6729090683052896	1.0383020367446285	0.27999499211108314	0.7781729068278942	1.4166338730191599	0.29210907336338987	0.9611351177433857	1.8253762192712901	0.2615313506321535	0.735590901503627	1.8788877268892346	0.31957266829640263	0.7843112351055904	1.8862576624310796	0.28904267126783967	1.0113708273406485	1.8747564346338912	0.03729973596791352	0.6913872732220265	1.0452451585779992	0.0771932032975679	0.7947884334452886	1.413579128007729	0.0922384009128506	0.9027019606891182	1.806426746834306	0.10814803991693327	0.7573958389101809	1.882770325420977	0.05019311930076509	0.7871064886718854	1.8766560614413974	0.115938256594558	0.9772339087022809	1.8690287731219715	0.12768028706500928	0.4572687021023445	0.4880253111020362	0.11863085609839162	0.36854634347521587	0.2488136041944587	0.0951923994097785	0.31183090198969293	0.40464279055551644	0.26724398046283837	0.465213474811524	0.573017439418362	0.33134182354560937	0.4428381915240099	0.818306619083456	0.21868843473058736	0.4630244784870526	1.04713322898761	0.12309119060385237	0.4906504445850561	1.1357109109358037	0.12480946432920546	0.49181111258036114	1.1477934557802871	0.14751903191297405	0.477864251010967	1.145599890581358	-0.03863195129576464	0.47644951119492307	0.5671105349709099	-0.04390795839647308	0.5298008040131611	0.8122162400444123	0.08132546467805338	0.45938483500486216	1.0267407296059623	0.13588962532645857	0.4740444432253863	1.1083289823171203	0.13734483167396747	0.47677587756889617	1.1377878916470454	0.12843712810504462	0.5046823686485303	1.1422369613671015
1	0.0169491525423728	0.2689984251970647	0.6692692000358538	1.038502841101992	0.2797644868941637	0.7789662146336274	1.4194773429671743	0.2921617866333856	0.9613792438015535	1.8254259643398876	0.26160549267329763	0.7358849967236273	1.878872359045968	0.3196326708693044	0.7843440662768185	1.8862078634442832	0.28976353433639	1.0111724172523335	1.871641097720912	0.03733752040737598	0.6910587463582754	1.0462634940906557	0.07653187913884488	0.7933207596983722	1.4112019652767396	0.09212223991252765	0.9026773947704526	1.8065604998404312	0.1081631965780902	0.7574684153950736	1.8827639021352802	0.05027705875547826	0.787218282236615	1.8766380437379788	0.11824432424391004	0.9790463532962068	1.8664633583798045	0.12767603004185113	0.45729225909031584	0.48802088708712865	0.12115979764524396	0.3751836037092976	0.2482122851784452	0.09507793250115455	0.31198555903067504	0.4046647357809191	0.2670726506989354	0.46484416334411355	0.5740832395957287	0.33096270985504816	0.4438197443558787	0.8163412442751703	0.2187266286173521	0.46307231886949685	1.047141421937262	0.12310092314588435	0.49063943950862726	1.137087895226021	0.12636095846681886	0.48418041937788064	1.1468389294732213	0.14608510261200133	0.4858873515217452	1.1467134686697036	-0.03854335882643101	0.4763457330077404	0.5663928770278449	-0.044106903792945545	0.5297281324749111	0.8124333488058328	0.08129504803325861	0.4597181483362711	1.027766649936771	0.13590079234521382	0.47140127289835526	1.1069700396981987	0.1384240675026957	0.47694883440890434	1.137941932660695	0.12852619743322827	0.5049549194306499	1.1424079913434189
2	0.0338983050847457	0.26928880827720897	0.6677230493143684	1.0394944936407282	0.279640364428899	0.7794784295830111	1.4211734678645533	0.2921929104921182	0.9615301969948474	1.8254579093848098	0.2616334278918479	0.7360292840549475	1.8788643926782411	0.31963150167596044	0.7842816716214801	1.8861624240080703	0.2901446839979974	1.0108948579809829	1.869759297096603	0.03736569794955759	0.6908367916236652	1.0468330269962034	0.07637200712276969	0.7929562847837792	1.410652663534866	0.09200484428616146	0.9028400448516264	1.8062846428429395	0.10817316262479065	0.7574970703431018	1.8827606560738335	0.05032888903547027	0.7872663491457108	1.876617760793976	0.11978265652852421	0.9804378185468418	1.8655327780331041	0.12767719400678673	0.45726695675370144	0.4880222865291626	0.12260399905289952	0.37891902000513417	0.24749408193889447	0.09508467737770628	0.3120710926597301	0.4046832504718252	0.2670132684298635	0.4646948369783781	0.5748901891022143	0.33102145739424066	0.4479641975262325	0.8152556629472358	0.2187487512821951	0.4630913233229845	1.0471451714062572	0.12340131010886043	0.48937706462760944	1.1381958330386543	0.12731284098199389	0.4797050868112761	1.146346956436729	0.14522154926281258	0.49064742917557214	1.1473560564316005	-0.03848250548817035	0.4762539009798881	0.5660694865635425	-0.04377918259922455	0.529507095302986	0.8135330682795173	0.08126430101728344	0.4599010635123705	1.0282252883074128	0.13642007618228397	0.4713928510706923	1.106824353198482	0.1389093770554534	0.4770874206374728	1.1380840112875052	0.12858656819508715	0.505156390877094	1.1425283486653557
3	0.0508474576271186	0.26936077776907963	0.6682902393979446	1.0411581688751166	0.2796236715089481	0.7796684772472858	1.4216376078877246	0.29219240011963393	0.9615711588485962	1.825449582929302	0.26162555209376975	0.7360367548784947	1.878871585733965	0.3195806331867312	0.7841503130479308	1.8861258352932415	0.2901811017474501	1.0106271744684054	1.8692048868773647	0.03737744564312864	0.6907650229661714	1.0469127253630912	0.07667801545589745	0.7936349741315097	1.411794452840499	0.0919999876798953	0.9032469393304723	1.8053869168213217	0.10817680715717426	0.7575030521373405	1.882773957309983	0.05033630603128787	0.7872995673863735	1.8766303855265223	0.1203924095966068	0.9811408270455159	1.8659038618265529	0.12767914227926871	0.4572123156205985	0.4880391910771859	0.1229173372558664	0.37978210296740045	0.2468862576696912	0.09546402802924615	0.31205733051238155	0.4046880925847717	0.2671096078110269	0.464874612784944	0.5755731850108194	0.3318974121263775	0.45527795734862636	0.8150936412159739	0.21875671757212106	0.46307259999948824	1.047144589060788	0.1241394863935194	0.48609849255595955	1.138612211230003	0.12759664350252264	0.4785014919874242	1.1462114679962028	0.144992629780245	0.4919033608053291	1.1474942215781052	-0.03843627796175942	0.47609425925566146	0.5656933985647147	-0.042846237501638594	0.5281883336374616	0.8149308564978952	0.08125432724036988	0.45988388617169174	1.0279269900714079	0.1369249963540162	0.4729915714563945	1.107442298978354	0.13860661096914023	0.47713250739848523	1.1381886768761404	0.12861437985614166	0.5052599914722394	1.1425959525728877
